<?xml version="1.0" encoding="UTF-8" standalone="no"?>
<svg
   xmlns:dc="http://purl.org/dc/elements/1.1/"
   xmlns:cc="http://creativecommons.org/ns#"
   xmlns:rdf="http://www.w3.org/1999/02/22-rdf-syntax-ns#"
   xmlns:svg="http://www.w3.org/2000/svg"
   xmlns:xlink="http://www.w3.org/1999/xlink"
   xmlns="http://www.w3.org/2000/svg"
   xmlns:sodipodi="http://sodipodi.sourceforge.net/DTD/sodipodi-0.dtd"
   width="400"
   height="400"
   viewBox="0 0 400 400"
   version="1.1"
   sodipodi:docname="R+.2.svg">
  <defs id="defs3">
    <filter id="drop-shadow" width="130%" height="120%">
      <feGaussianBlur in="SourceAlpha" stdDeviation="5" />
      <feOffset dx="10" dy="8" result="offsetblur" />
      <feFlood flood-color="rgb(128,128,128)" flood-opacity=".9" />
      <feComposite in2="offsetblur" operator="in" />
      <feMerge>
        <feMergeNode />
        <feMergeNode in="SourceGraphic" />
      </feMerge>
    </filter>
    <filter id="drop-shadow2" width="130%" height="120%">
      <feGaussianBlur in="SourceAlpha" stdDeviation="2" />
      <feOffset dx="4" dy="7" result="offsetblur" />
      <feFlood flood-color="rgb(100,100,100)" flood-opacity=".8" />
      <feComposite in2="offsetblur" operator="in" />
      <feMerge>
        <feMergeNode />
        <feMergeNode in="SourceGraphic" />
      </feMerge>
    </filter>

    <path id="text-S"
       d="m 19.81746,20.07539 c -2e-5,1.53324 -0.28661,2.86587 -0.85976,3.99788 -0.55886,1.13202 -1.34698,2.07059 -2.36434,2.81571 -1.0174,0.7308 -2.22822,1.27531 -3.63248,1.63354 -1.40429,0.35824 -2.93753,0.53735 -4.59972,0.53735 -1.47593,0 -2.90169,-0.086 -4.2773,-0.25792 C 2.70824,28.62999 1.34696,28.34341 0,27.94219 l 0,-5.22304 c 0.65915002,0.22927 1.34696,0.44421 2.06343,0.64482 0.71646,0.20061 1.43292,0.37973 2.14939,0.53735 0.73079,0.14329 1.45442,0.25793 2.1709,0.3439 0.71645,0.086 1.41143,0.12897 2.08491,0.12896 1.0030504,10e-6 1.85564,-0.086 2.55779,-0.25792 0.70212,-0.17195 1.27529,-0.40838 1.71952,-0.70931 0.44419,-0.30091 0.7666,-0.65914 0.96723,-1.07469 0.20059,-0.41555 0.3009,-0.87409 0.30091,-1.37562 -10e-6,-0.6878 -0.20062,-1.26097 -0.60183,-1.71952 C 13.02534,18.76426 12.50949,18.34871 11.86468,17.99047 11.21985,17.63225 10.48189,17.30984 9.6508004,17.02324 8.83402,16.73667 7.99576,16.42859 7.13601,16.099 6.29057,15.76944 5.4523,15.39688 4.62121,14.98131 3.80443,14.56578 3.07364,14.04992 2.42882,13.43374 1.784,12.8176 1.26098,12.0868 0.85976002,11.24136 c -0.38689,-0.85974 -0.58034,-1.8914503 -0.58034,-3.0951403 0,-1.10333 0.20061,-2.14937 0.60184,-3.13812 C 1.28247,4.0193997 1.91296,3.1596397 2.77273,2.4288197 3.63248,1.6837197 4.73584,1.0962197 6.0828,0.66631964 7.42975,0.22212964 9.05613,2.9636235e-5 10.96194,-3.6376465e-7 11.52077,2.9636235e-5 12.1011,0.02869964 12.70295,0.08599964 c 0.61615,0.043 1.21798,0.1075 1.80549,0.19344 0.60182,0.0717 1.17499,0.16482 1.71952,0.27943 0.55883,0.10033 1.06752,0.2078 1.52608,0.32241003 l 0,4.83614003 c -0.45856,-0.17193 -0.96009,-0.32955 -1.50458,-0.47287 -0.54453,-0.14326 -1.11054,-0.26506 -1.69803,-0.36539 -0.57319,-0.11461 -1.15352,-0.20059 -1.74101,-0.25793 -0.58752,-0.0573 -1.14636,-0.086 -1.67653,-0.086 -0.93142,3e-5 -1.7195296,0.0788 -2.36434,0.23644 -0.64483,0.14331 -1.17501,0.35109 -1.59056,0.62332 -0.41555,0.25795 -0.71647,0.58036 -0.90274,0.96723 -0.18629,0.38692 -0.27943,0.8168 -0.27942,1.28964 -1e-5,0.58752 0.19343,1.09621 0.58033,1.52607 0.40122,0.41557 0.92424,0.7953001 1.56906,1.1391903 0.65914,0.32959 1.3971004,0.64483 2.21389,0.94573 0.83108,0.28661 1.67651,0.60185 2.53629,0.94574 0.87407,0.32959 1.7195,0.70931 2.53629,1.13918 0.83108,0.42989 1.56904,0.95291 2.21388,1.56906 0.65913,0.61617 1.18215,1.34697 1.56906,2.19239 0.4012,0.83111 0.60181,1.81983 0.60183,2.96617" />
    <!-- left-square-brackets -->
    <path
        id="text-lsb"
        d="m 4.6957284e-6,29.05987 0,-39.87135 11.3058373042716,0 0,4.0838598 -6.46969,0 0,31.7036302 6.46969,0 0,4.08386 -11.3058373042716,0" />
    <use id="text-rsb" xlink:href="#text-lsb" x="-11.3" style="fill: red;" transform="scale(-1,1)" />
    <path
        id="text-lt"
        d="M 14.486939,29.05987 0,16.85129 14.486939,4.6641998 17.84,8.0602498 7.1789876,16.8083 17.84,25.66382 14.486939,29.05987" />
    <path
        id="text-H"
        d="m 14.830852,29.05987 0,-12.23008 -9.543331,0 0,12.23008 -5.287521,0 0,-28.09264023 5.287521,0 0,11.28434023 9.543331,0 0,-11.28434023 5.287521,0 0,28.09264023 -5.287521,0" />
    <path
        id="text-T"
        d="m 13.111219,5.3734998 0,23.6863702 -5.4164379,0 0,-23.6863702 -7.6947811,0 0,-4.40627003 20.806,0 0,4.40627003 -7.694781,0" />
    <path
        id="text-M"
        d="M 17.603762,29.05987 17.087896,13.17581 16.894454,6.8350898 15.54031,11.13389 l -3.116652,9.56482 -3.3101145,0 L 6.2978033,11.13389 5.1156221,6.8350898 4.9651625,13.04685 4.4922896,29.05987 0,29.05987 1.3756293,0.96722977 l 5.975391,0 2.4718306,7.97427003 1.1821821,4.4922402 1.182182,-4.2343102 2.600797,-8.23220003 6.082864,0 L 22.268,29.05987 l -4.664238,0" />
    <path
        id="text-L"
        d="m 0,29.05987 0,-28.09264023 5.3734439,0 0,23.55741023 11.8645561,0 0,4.53523 -17.238,0" />
    <path
        id="text-gt"
        d="M 3.33157,4.6641998 17.81852,16.85129 3.33157,29.05987 0,25.66382 10.63952,16.89428 0,8.0602498 3.33157,4.6641998" />
    <path
        id="text-comma"
        d="m 0,25.64232 c 0.85976,0.0287 1.6622,-0.0215 2.4073301,-0.15046 0.74512,-0.12896 1.3899299,-0.33674 1.93446,-0.62332 0.55883,-0.27226 0.99588,-0.62333 1.3111299,-1.05321 0.31524,-0.42988 0.47286,-0.93857 0.47287,-1.52607 -1e-5,-0.41555 -0.0645,-0.76662 -0.19345,-1.05321 C 5.8177,20.93514 5.66724,20.67005 5.48097,20.44078 5.29468,20.19718 5.09407,19.96791 4.87914,19.75297 4.67852,19.5237 4.48507,19.28727 4.2988,19.04367 4.11251,18.78574 3.95489,18.49916 3.82593,18.18391 3.71129,17.85434 3.65397,17.46028 3.65398,17.00174 c -10e-6,-0.44421 0.0788,-0.87409 0.23643,-1.28964 0.15762,-0.42987 0.38689,-0.8096 0.68781,-1.13918 0.30091,-0.32957 0.66631,-0.59466 1.09619,-0.79528 0.4442,-0.2006 0.94573,-0.30091 1.5045801,-0.30092 0.70213,10e-6 1.3326199,0.1648 1.89148,0.49437 0.55882,0.31525 1.0316899,0.75229 1.4185999,1.31113 0.38687,0.54452 0.68063,1.17501 0.88125,1.89147 0.2006,0.70214 0.3009,1.4401 0.30092,2.21388 -2e-5,1.33263 -0.24362,2.58644 -0.7308,3.76145 -0.48721,1.175 -1.2179999,2.19955 -2.19238,3.07364 C 7.7736499,27.09674 6.5556599,27.78455 5.0940799,28.28608 3.64681,28.80193 1.9487801,29.05986 0,29.05987 l 0,-3.41755" />
    <path
        id="text-C"
        d="m 19.817,27.57679 c -1.246642,0.50153 -2.457444,0.87409 -3.632398,1.11769 -1.160663,0.24359 -2.371466,0.36539 -3.632407,0.36539 -2.020394,0 -3.8115235,-0.29375 -5.373368,-0.88125 C 5.6312821,27.57679 4.3201819,26.68837 3.2455163,25.51337 2.1851604,24.33837 1.3755788,22.88394 0.81675145,21.15009 0.27224382,19.40192 -9.9994975e-6,17.37432 0,15.06729 -9.9994975e-6,12.70296 0.30090317,10.60372 0.9027195,8.7695498 c 0.6018163,-1.84846 1.4615568,-3.40319 2.5792214,-4.6642 1.1176547,-1.27528 2.4717439,-2.24251 4.0622778,-2.90168 1.6048335,-0.67346003 3.4031223,-1.01019003 5.3948673,-1.01022003 0.644786,3e-5 1.246602,0.0144 1.805449,0.043 0.573147,0.0287 1.131974,0.086 1.676492,0.17195 0.544488,0.0717 1.096155,0.17198 1.655003,0.30091 0.558807,0.129 1.139134,0.29378003 1.74097,0.49437003 l 0,5.24453 c -1.217982,-0.57315 -2.378626,-0.98154 -3.481941,-1.22516 -1.103355,-0.24357 -2.106382,-0.36537 -3.009092,-0.3654 -1.332609,3e-5 -2.471763,0.24363 -3.417472,0.7308 -0.9457185,0.47289 -1.7266508,1.14637 -2.3427868,2.02043 -0.6018263,0.85978 -1.0460262,1.89149 -1.3325997,3.0951402 -0.2865835,1.18935 -0.4298803,2.50048 -0.4298703,3.9334 -10e-6,1.51892 0.1432868,2.8802 0.4298703,4.08386 0.3009031,1.18934 0.7594327,2.19955 1.3755887,3.03065 0.616136,0.8311 1.4042281,1.46876 2.3642863,1.91296 0.9600285,0.42989 2.0991825,0.64483 3.4174625,0.64482 0.472839,10e-6 0.981518,-0.043 1.526035,-0.12896 0.558818,-0.1003 1.117645,-0.2221 1.676492,-0.3654 0.573147,-0.15762 1.131975,-0.33673 1.676502,-0.53735 0.558807,-0.21493 1.074646,-0.42987 1.547525,-0.64482 l 0,4.94362" />
    <path
        id="text-J"
        d="m 15.755,20.22584 c -2e-5,1.31831 -0.207789,2.52197 -0.623316,3.61099 -0.415568,1.08904 -1.024565,2.02044 -1.82698,2.79422 -0.802455,0.77379 -1.79834,1.37562 -2.987653,1.8055 -1.1893331,0.41555 -2.5721052,0.62332 -4.1483162,0.62332 -1.1606734,0 -2.278357,-0.13613 -3.3530409,-0.40838 C 1.7410001,28.37923 0.80243542,28.03533 0,27.61977 l 0,-5.11556 c 0.35822795,0.30092 0.77377558,0.58034 1.2466429,0.83826 0.4871872,0.25793 1.0030442,0.4872 1.5475611,0.68781 0.5444969,0.18628 1.1033437,0.33674 1.6765205,0.45137 0.5731567,0.10031 1.1391635,0.15046 1.6980103,0.15046 0.4728573,0 0.9600545,-0.086 1.4615816,-0.25793 0.5158471,-0.17195 0.9743844,-0.45853 1.3756122,-0.85976 0.4012077,-0.40121 0.7307758,-0.92423 0.9887143,-1.56906 0.2579181,-0.65914 0.3868781,-1.46875 0.3868881,-2.42882 l 0,-14.6159102 -10.16659223,0 0,-4.36328003 15.54006123,0 0,19.68849023" />
  </defs>
  <!-- font-family:Pristina -->
  <g id="main">
    <path
       id="main-R"
       style="fill:#ff0000;filter:url(#drop-shadow)"
       d="m 184.19187,69.517817 c -5.7892,2.4353 -4.1125,10.65162 -5.9686,15.59376 -4.7362,3.10911 -11.9506,3.94929 -17.435,6.635898 -23.54014,9.239345 -47.05254,21.452435 -63.908846,40.801595 -4.7956,5.39812 -5.1714,13.10631 -1.847,19.34653 4.154,10.59362 8.593606,21.40401 16.128306,29.96598 3.6943,3.20018 10.7655,-0.0415 8.5,-5.28125 -2.7536,-9.96332 -9.2299,-22.37765 -1.5938,-31.78125 13.6175,-17.74655 35.08144,-26.31961 55.37504,-34.18751 -3.6093,12.52506 -6.6093,25.74607 -11.4687,37.56251 -4.4377,0.80261 -13.1042,0.53465 -13.0938,6.84375 1.0124,5.282 5.8578,9.55047 6.7574,14.37924 -6.452,17.63028 -13.15944,36.20768 -21.13244,52.5895 -2.0886,-2.9843 -6.1777,-9.18794 -10.2187,-5.09375 -3.3539,4.49921 -0.5346,11.05614 -3.5938,15.9375 -1.6295,8.13631 -7.7636,15.26111 -7.125,23.75 2.4116,6.04502 8.0333,11.24084 14.2188,13.21875 7.3114,-0.22704 8.9428,-9.45934 11.8749,-14.53881 10.17474,-23.31657 19.64314,-47.09303 27.37514,-71.36743 29.5798,40.57924 62.1233,79.61649 100.6249,111.93748 6.0004,5.06178 15.3836,6.61861 21.4687,0.78125 6.9191,-6.30885 12.892,-14.20493 16.125,-22.96875 1.4555,-5.22568 -5.516,-7.5349 -8.9374,-4.34375 -5.0172,4.8781 -13.0158,6.46272 -18.9063,2.0625 -22.4544,-14.64497 -39.7106,-36.01964 -57.358,-55.88122 -15.924,-18.82745 -30.9765,-38.48698 -44.7044,-59.05626 5.7575,-17.0791 10.7537,-34.39793 14.7811,-51.96876 15.6036,-5.784325 32.9634,-10.794285 49.5938,-6.812505 9.234,2.03871 10.5897,13.081965 7.5625,20.500005 -5.7057,14.97279 -16.3212,28.38039 -28.5313,38.68751 -6.2792,5.52336 -15.2933,7.48202 -22.9375,3.84375 -4.8281,-2.20288 -11.2073,3.16614 -7.7812,8.03125 9.1215,8.13361 22.3403,15.65142 34.75,10.53125 15.5647,-7.1126 25.9204,-21.72724 35.4375,-35.34375 7.9122,-11.73411 14.1435,-27.96566 6.4062,-41.31251 -3.6773,-6.534825 -11.9684,-8.839765 -14.0937,-16.218743 -4.4846,-9.01127 -14.6442,-14.65148 -24.7115,-12.28644 -10.6048,1.39037 -21.1326,3.81843 -31.5385,6.34894 -2.5783,-3.645 -4.7527,-10.75662 -10.0938,-10.90626 z" />
    <path
       style="fill:#c80000;filter:url(#drop-shadow2)"
       id="main-plus"
       d="m 319.54132,0 c -7.0098,0.7578695 -5.2841,8.67893 -3.2242,12.78158 -0.5812,8.14184 -2.9331,16.02523 -4.7212,23.951051 -11.513,1.472 -26.3754,-6.590611 -35.9265,2.53329 -1.7823,5.87523 -7.2574,16.583329 1.094,19.575389 5.6622,0.74309 8.6253,-5.34288 14.8522,-3.36542 4.4632,1.35572 18.4808,-3.938859 14.0278,4.37827 -1.2903,8.43052 -11.2885,22.47085 -0.3807,28.58053 4.9575,2.813882 15.8816,8.660135 17.3876,-0.9212 -0.022,-4.60973 -3.519,-7.80657 -0.6333,-12.78157 2.7941,-7.88001 -0.034,-22.897939 12.4362,-18.36632 8.4188,-0.22616 23.3125,5.077834 26.5995,-6.563519 3.798,-5.43661 4.8817,-18.250631 -5.1242,-15.94818 -6.3491,6.76316 -16.9062,2.66677 -25.3904,3.62721 0.2216,-9.623821 10.4151,-21.417411 2.8211,-29.996401 -3.961,-3.19235 -8.732,-7.0972205 -13.8179,-7.48471 z" />
  </g>
  <!-- font-family:Consolas -->
  <g id="text" transform="translate(0,357)">
    <use xlink:href="#text-lsb" x="0" />

    <use xlink:href="#text-lt" x="19.882" y="-8" />
    <use xlink:href="#text-H" x="44" y="-8" />
    <use xlink:href="#text-T" x="68" y="-8" />
    <use xlink:href="#text-M" x="91.5" y="-8" />
    <use xlink:href="#text-L" x="119" y="-8" />
    <use xlink:href="#text-gt" x="143" y="-8" />

    <use xlink:href="#text-comma" x="167.5" y="-1" />

    <use xlink:href="#text-C" x="213.5" y="-8" />
    <use xlink:href="#text-S" x="238" y="-8" />
    <use xlink:href="#text-S" x="262" y="-8" />

    <use xlink:href="#text-comma" x="289" y="-1" />

    <use xlink:href="#text-J" x="336.5" y="-8" />
    <use xlink:href="#text-S" x="359" y="-8" />
    <use xlink:href="#text-rsb" x="387" />
  </g>
</svg>
